<mxfile host="app.diagrams.net" modified="2022-08-13T07:48:16.360Z" agent="5.0 (Windows NT 10.0; Win64; x64) AppleWebKit/537.36 (KHTML, like Gecko) Chrome/103.0.0.0 Safari/537.36" etag="WvFoed_7GkLQukALBOKK" version="20.2.3" type="github">
  <diagram id="HB321YIEDorgEXTilPGQ" name="第 1 页">
    <mxGraphModel dx="1178" dy="637" grid="1" gridSize="10" guides="1" tooltips="1" connect="1" arrows="1" fold="1" page="1" pageScale="1" pageWidth="1200" pageHeight="1920" math="0" shadow="0">
      <root>
        <mxCell id="0" />
        <mxCell id="1" parent="0" />
        <mxCell id="gzuwAeFj6tS0efnplOqI-1" value="" style="shape=folder;fontStyle=1;spacingTop=10;tabWidth=40;tabHeight=14;tabPosition=left;html=1;fontSize=18;verticalAlign=top;fillColor=#fff2cc;strokeColor=#d6b656;" vertex="1" parent="1">
          <mxGeometry x="40.5" y="505" width="1120" height="410" as="geometry" />
        </mxCell>
        <mxCell id="gzuwAeFj6tS0efnplOqI-2" value="ZJ01-01&#xa;资源自动发现组件" style="shape=module;align=center;spacingLeft=20;align=center;verticalAlign=middle;whiteSpace=wrap;labelPosition=center;verticalLabelPosition=middle;fillColor=#dae8fc;strokeColor=#6c8ebf;" vertex="1" parent="1">
          <mxGeometry x="61" y="580" width="110" height="50" as="geometry" />
        </mxCell>
        <mxCell id="gzuwAeFj6tS0efnplOqI-3" value="ZJ01-02&#xa;数据自动采集组件" style="shape=module;align=center;spacingLeft=20;align=center;verticalAlign=middle;whiteSpace=wrap;labelPosition=center;verticalLabelPosition=middle;fillColor=#dae8fc;strokeColor=#6c8ebf;" vertex="1" parent="1">
          <mxGeometry x="197" y="580" width="110" height="50" as="geometry" />
        </mxCell>
        <mxCell id="gzuwAeFj6tS0efnplOqI-4" value="ZJ01-03&#xa;数据合规性自动核查组件" style="shape=module;align=center;spacingLeft=20;align=center;verticalAlign=middle;whiteSpace=wrap;labelPosition=center;verticalLabelPosition=middle;fillColor=#dae8fc;strokeColor=#6c8ebf;" vertex="1" parent="1">
          <mxGeometry x="332" y="580" width="110" height="50" as="geometry" />
        </mxCell>
        <mxCell id="gzuwAeFj6tS0efnplOqI-5" value="ZJ02-01&#xa;运行状态监测组件" style="shape=module;align=center;spacingLeft=20;align=center;verticalAlign=middle;whiteSpace=wrap;labelPosition=center;verticalLabelPosition=middle;fillColor=#dae8fc;strokeColor=#6c8ebf;" vertex="1" parent="1">
          <mxGeometry x="468" y="580" width="110" height="50" as="geometry" />
        </mxCell>
        <mxCell id="gzuwAeFj6tS0efnplOqI-6" value="ZJ02-03&#xa;告警管理组件" style="shape=module;align=center;spacingLeft=20;align=center;verticalAlign=middle;whiteSpace=wrap;labelPosition=center;verticalLabelPosition=middle;fillColor=#dae8fc;strokeColor=#6c8ebf;" vertex="1" parent="1">
          <mxGeometry x="740" y="580" width="110" height="50" as="geometry" />
        </mxCell>
        <mxCell id="gzuwAeFj6tS0efnplOqI-7" value="ZJ03-03&#xa;业务逻辑拓扑管理组件" style="shape=module;align=center;spacingLeft=20;align=center;verticalAlign=middle;whiteSpace=wrap;labelPosition=center;verticalLabelPosition=middle;fillColor=#dae8fc;strokeColor=#6c8ebf;" vertex="1" parent="1">
          <mxGeometry x="61" y="685" width="110" height="50" as="geometry" />
        </mxCell>
        <mxCell id="gzuwAeFj6tS0efnplOqI-8" value="ZJ04-01&#xa;营销业务域全流量获取组件" style="shape=module;align=center;spacingLeft=20;align=center;verticalAlign=middle;whiteSpace=wrap;labelPosition=center;verticalLabelPosition=middle;fillColor=#dae8fc;strokeColor=#6c8ebf;" vertex="1" parent="1">
          <mxGeometry x="197" y="685" width="110" height="50" as="geometry" />
        </mxCell>
        <mxCell id="gzuwAeFj6tS0efnplOqI-9" value="ZJ04-02&#xa;交易监控组件" style="shape=module;align=center;spacingLeft=20;align=center;verticalAlign=middle;whiteSpace=wrap;labelPosition=center;verticalLabelPosition=middle;fillColor=#dae8fc;strokeColor=#6c8ebf;" vertex="1" parent="1">
          <mxGeometry x="332" y="685" width="110" height="50" as="geometry" />
        </mxCell>
        <mxCell id="gzuwAeFj6tS0efnplOqI-10" value="ZJ04-03&#xa;协议解码组件" style="shape=module;align=center;spacingLeft=20;align=center;verticalAlign=middle;whiteSpace=wrap;labelPosition=center;verticalLabelPosition=middle;fillColor=#dae8fc;strokeColor=#6c8ebf;" vertex="1" parent="1">
          <mxGeometry x="468" y="685" width="110" height="50" as="geometry" />
        </mxCell>
        <mxCell id="gzuwAeFj6tS0efnplOqI-11" value="ZJ02-02&#xa;运行分析组件" style="shape=module;align=center;spacingLeft=20;align=center;verticalAlign=middle;whiteSpace=wrap;labelPosition=center;verticalLabelPosition=middle;fillColor=#dae8fc;strokeColor=#6c8ebf;" vertex="1" parent="1">
          <mxGeometry x="604" y="580" width="110" height="50" as="geometry" />
        </mxCell>
        <mxCell id="gzuwAeFj6tS0efnplOqI-12" value="ZJ03-01&#xa;影响关系管理组件" style="shape=module;align=center;spacingLeft=20;align=center;verticalAlign=middle;whiteSpace=wrap;labelPosition=center;verticalLabelPosition=middle;fillColor=#dae8fc;strokeColor=#6c8ebf;" vertex="1" parent="1">
          <mxGeometry x="875" y="580" width="110" height="50" as="geometry" />
        </mxCell>
        <mxCell id="gzuwAeFj6tS0efnplOqI-13" value="ZJ03-02&#xa;物理链路诊断分析组件" style="shape=module;align=center;spacingLeft=20;align=center;verticalAlign=middle;whiteSpace=wrap;labelPosition=center;verticalLabelPosition=middle;fillColor=#dae8fc;strokeColor=#6c8ebf;" vertex="1" parent="1">
          <mxGeometry x="1011" y="580" width="110" height="50" as="geometry" />
        </mxCell>
        <mxCell id="gzuwAeFj6tS0efnplOqI-14" value="ZJ04-04&#xa;业务分析组件" style="shape=module;align=center;spacingLeft=20;align=center;verticalAlign=middle;whiteSpace=wrap;labelPosition=center;verticalLabelPosition=middle;fillColor=#dae8fc;strokeColor=#6c8ebf;" vertex="1" parent="1">
          <mxGeometry x="604" y="685" width="110" height="50" as="geometry" />
        </mxCell>
        <mxCell id="gzuwAeFj6tS0efnplOqI-15" value="ZJ04-05&#xa;交易告警组件" style="shape=module;align=center;spacingLeft=20;align=center;verticalAlign=middle;whiteSpace=wrap;labelPosition=center;verticalLabelPosition=middle;fillColor=#dae8fc;strokeColor=#6c8ebf;" vertex="1" parent="1">
          <mxGeometry x="740" y="685" width="110" height="50" as="geometry" />
        </mxCell>
        <mxCell id="gzuwAeFj6tS0efnplOqI-16" value="ZJ05-03&#xa;交易监控组件" style="shape=module;align=center;spacingLeft=20;align=center;verticalAlign=middle;whiteSpace=wrap;labelPosition=center;verticalLabelPosition=middle;fillColor=#dae8fc;strokeColor=#6c8ebf;" vertex="1" parent="1">
          <mxGeometry x="332" y="790" width="110" height="50" as="geometry" />
        </mxCell>
        <mxCell id="gzuwAeFj6tS0efnplOqI-17" value="ZJ04-06&#xa;关键指标统计组件" style="shape=module;align=center;spacingLeft=20;align=center;verticalAlign=middle;whiteSpace=wrap;labelPosition=center;verticalLabelPosition=middle;fillColor=#dae8fc;strokeColor=#6c8ebf;" vertex="1" parent="1">
          <mxGeometry x="875" y="685" width="110" height="50" as="geometry" />
        </mxCell>
        <mxCell id="gzuwAeFj6tS0efnplOqI-18" value="ZJ04-07&#xa;常规状态监测组件" style="shape=module;align=center;spacingLeft=20;align=center;verticalAlign=middle;whiteSpace=wrap;labelPosition=center;verticalLabelPosition=middle;fillColor=#dae8fc;strokeColor=#6c8ebf;" vertex="1" parent="1">
          <mxGeometry x="1011" y="685" width="110" height="50" as="geometry" />
        </mxCell>
        <mxCell id="gzuwAeFj6tS0efnplOqI-19" value="ZJ05-01&#xa;客服数据采集与统计分析组件" style="shape=module;align=center;spacingLeft=20;align=center;verticalAlign=middle;whiteSpace=wrap;labelPosition=center;verticalLabelPosition=middle;fillColor=#dae8fc;strokeColor=#6c8ebf;" vertex="1" parent="1">
          <mxGeometry x="61" y="790" width="110" height="50" as="geometry" />
        </mxCell>
        <mxCell id="gzuwAeFj6tS0efnplOqI-20" value="ZJ05-02&#xa;智能预警组件" style="shape=module;align=center;spacingLeft=20;align=center;verticalAlign=middle;whiteSpace=wrap;labelPosition=center;verticalLabelPosition=middle;fillColor=#dae8fc;strokeColor=#6c8ebf;" vertex="1" parent="1">
          <mxGeometry x="197" y="790" width="110" height="50" as="geometry" />
        </mxCell>
      </root>
    </mxGraphModel>
  </diagram>
</mxfile>
